<?xml version="1.0" encoding="UTF-8"?>
<svg xmlns="http://www.w3.org/2000/svg" version="1.2" baseProfile="tiny-ps" viewBox="0 0 160 160" width="160" height="160">
  <title>WKYHB</title>
  <g>
    <path d="M72.8,53.3l-4.9,4.9h2.2l3.4-3.2v-.4c0-.4,0-.7,0-1.1l-.8-.3Z" fill="#c3132e"/>
    <path d="M102.6,24.1h-.6s-19.2,19.3-19.2,19.3l.3.8c.5,0,1.1.2,1.7.3h.4c0-.1,16.7-15.5,16.7-15.5l32.4,46.1h1.1l-12.7-19.7,14.8,10.6.5-.7-18.7-15.2-1.9-2.9,22.7,16.3.5-.7-27.6-22.4h0s24.8,17.8,24.8,17.8l.5-.7-25.6-20.7,32.6,23.3.5-.7-43.3-35Z" fill="#c3132e"/>
  </g>
  <g>
    <path d="M35.4,72.4c0,0,.1,0,.1-.1v-15.8c-2.5,0-3.1,0-3.8,0-.5,0-.7.2-.7.5l-.5,2.8c-.5,0-1.1,0-1.6-.1.1-1.6.2-3.2.3-4.7.5,0,1.5,0,2.7,0h4.9c.9,0,4.2,0,4.9,0,1.2,0,1.9,0,2.5,0,.1,1.6.2,3.2.2,4.7-.5,0-1,.1-1.6.2l-.4-2.8c0-.3-.2-.5-.7-.5-.8,0-1.3,0-3.8,0v15.9c0,0,2.6,0,2.6,0,0,.4,0,.9,0,1.4-1,0-2.5,0-3.6,0s-2.5,0-3.7,0c0-.4,0-.9,0-1.4h2.3Z" fill="#231f20"/>
    <path d="M46.2,72.4c0,0,.1,0,.1-.1v-11.5h-1.8v-1.3h6.1c0,.4,0,.8,0,1.3h-2c0,0,0,.1,0,.1v4.6c0,0,0,0,0,0h7.3v-4.7h-2.1c0-.5,0-.9,0-1.3h6c0,.4,0,.8,0,1.3h-1.6c0,0,0,0,0,.1v11.5c0,0,1.8,0,1.8,0,0,.4,0,.8,0,1.3-.9,0-2,0-2.9,0s-2.2,0-3.1,0c0-.4,0-.9,0-1.3h1.9c0,0,.1-.1.1-.2v-5.3s0,0-.1,0h-7.3s0,5.5,0,5.5h2.2c0,.5,0,1,0,1.4-1,0-2.1,0-3.2,0s-1.9,0-2.9,0v-1.3h1.6Z" fill="#231f20"/>
    <path d="M62.4,72.5c0,0,0,0,0,0v-11.5h-1.8v-1.4h10.7c0,1.1.1,2.3.2,3.5-.4,0-.9.1-1.5.2l-.4-1.8c0-.2-.2-.3-.6-.4-.6,0-2.2,0-3.7,0h-.7v5c1.3,0,2.5,0,3.7,0,.4,0,.5-.1.6-.4v-1h1.5c0,.8,0,1.5,0,2.3v2.1c-.5,0-1,0-1.5,0v-1.1c-.1-.4-.2-.5-.7-.5-1.1,0-2.3,0-3.7,0v4.9c0,.4,0,.5,1.3.5,1.9,0,3.3,0,3.7-.2.2,0,.3-.2.4-.4l.7-1.9c.5,0,1,.2,1.4.3-.2,1.2-.5,2.5-.8,3.6h-10.8c0-.4,0-.8,0-1.3h1.7Z" fill="#231f20"/>
    <path d="M16.1,88.9c0,0,.1,0,.1-.1v-14.9h-1.9c0-.5,0-.9,0-1.3.9,0,2.1,0,3.1,0s2.3,0,3.3,0c0,.4,0,.8,0,1.3h-2.2c0,0,0,.1,0,.2v6.3c0,0,0,.1.1.1h8.8v-6.5h-2.3c0-.5,0-.9,0-1.3h3.4c1,0,2.1,0,2.9,0,0,.4,0,.9,0,1.3h-1.7c0,0,0,.1,0,.2v14.9c0,0,1.9,0,1.9,0,0,.4,0,.8,0,1.3h-3.1c-1.1,0-2.3,0-3.3,0,0-.4,0-.9,0-1.3h2.2c0,0,.1-.1.1-.2v-7c0,0,0-.1-.1-.1h-8.8c0,0,0,7.2,0,7.2h2.4c0,.5,0,1,0,1.4-1,0-2.3,0-3.4,0s-2.1,0-3.1,0c0-.4,0-.8,0-1.3h1.8Z" fill="#231f20"/>
    <path d="M34.4,83.4c0,2,.3,2.7.8,3.3.4.4,1.1.9,2.3.9s1.7-.3,2.2-.8c.5-.5,1-1.5,1-3.3s0-4.1,0-5.9c0,0,0,0,0,0h-1.7c0-.4,0-.8,0-1.1h2.6c.8,0,1.5,0,2.3,0,0,.3,0,.7,0,1.1h-1.3s0,6.2,0,6.2c0,2-.7,3.3-1.4,4-.6.6-1.7,1.2-3.5,1.2s-2.8-.3-3.6-1.1c-1.1-1-1.3-2.3-1.3-4v-6.1c0,0,0-.1,0-.1h-1.3c0-.4,0-.8,0-1.1.7,0,1.6,0,2.3,0s1.9,0,2.8,0c0,.3,0,.7,0,1.1h-1.8s0,5.9,0,5.9Z" fill="#231f20"/>
    <path d="M49.1,87.4s0,0,0,0v-9.9c-1.6,0-2,0-2.5,0-.4,0-.5.1-.5.3l-.3,1.9c-.4,0-.9,0-1.3,0,0-1.2.1-2.4.2-3.5.6,0,1.2,0,2,0h6.9c.8,0,1.3,0,1.9,0,0,1.1.1,2.2.2,3.4-.4,0-.9,0-1.4.1l-.3-1.9c0-.2-.1-.3-.5-.4-.6,0-1,0-2.5,0v9.9s1.8,0,1.8,0c0,.4,0,.7,0,1.1-.8,0-1.8,0-2.7,0s-1.9,0-2.8,0c0-.3,0-.7,0-1.1h1.7Z" fill="#231f20"/>
    <path d="M64.9,78c0-.1,0-.2-.1-.3-.4-.2-1-.3-1.6-.3-1.1,0-2.3.3-3.2,1.2-1,1-1.7,2.4-1.7,4.1s.2,2.6,1.2,3.5c.7.8,2,1.2,3.3,1.2s2.6-.4,3.6-.7c0,.4.2.8.3,1.2-1.6.5-3,.9-4.2.9s-3-.3-4.1-1.2c-1.3-.9-2.1-2.6-2.1-4.5s1.2-4.5,2.6-5.6c1.4-1.1,3.1-1.5,4.7-1.5s2.2.2,2.7.4c0,1.1.2,2.2.2,3.4-.4,0-.9,0-1.4.1l-.3-2.1Z" fill="#231f20"/>
    <path d="M69.3,87.4c0,0,0,0,0,0v-9.8h-1.5v-1.1h5.2c0,.3,0,.7,0,1.1h-1.7s0,0,0,.1v3.9s0,0,0,0h6.2v-4h-1.8c0-.4,0-.8,0-1.1h5.1c0,.3,0,.7,0,1.1h-1.4s0,0,0,.1v9.9s1.5,0,1.5,0c0,.3,0,.7,0,1.1-.8,0-1.7,0-2.5,0s-1.8,0-2.7,0c0-.3,0-.7,0-1.1h1.6c0,0,0,0,0-.2v-4.6s0,0,0,0h-6.2s0,4.7,0,4.7h1.8c0,.4,0,.8,0,1.2-.8,0-1.8,0-2.7,0s-1.7,0-2.4,0v-1.1h1.4Z" fill="#231f20"/>
    <path d="M82.2,77.5c0-.4,0-.8,0-1.1h5.3c0,.3,0,.7,0,1.1h-1.7c0,0,0,0,0,.1v9.8s1.7,0,1.7,0c0,.4,0,.8,0,1.1-.8,0-1.7,0-2.6,0s-1.8,0-2.7,0c0-.3,0-.7,0-1.1h1.5c0,0,0,0,0-.2v-9.8h-1.7Z" fill="#231f20"/>
    <path d="M89.9,87.4c0,0,.1,0,.1,0v-9.8h-1.5c0-.4,0-.8,0-1.2h3.4c2.3,3.2,4.8,6.9,6.9,10.1h.1c0-3,0-6,0-8.9h-2c0-.4,0-.8,0-1.1.8,0,1.7,0,2.6,0h2.2c0,.3,0,.7,0,1.1h-1.3c0,0,0,0,0,.1v10.9c-.5.1-1.1.2-1.5.2-2-2.6-4.7-6.4-7.1-10h-.1v8.6h2.1c0,.4,0,.8,0,1.2h-4.9c0-.3,0-.7,0-1.1h1.3Z" fill="#231f20"/>
    <path d="M104,87c0,.1,0,.2.2.3.4.2,1.2.4,1.9.4,1,0,1.9-.2,2.4-.7.4-.4.6-.9.6-1.4,0-1.5-1.1-1.8-3-2.6-1.8-.7-3.2-1.6-3.2-3.4s.6-1.9,1.3-2.5c.7-.6,2-.9,3.6-.9s2.1.2,2.7.5c0,.9.2,2,.2,3-.4,0-.8,0-1.3.1l-.3-1.8c0-.1,0-.2-.1-.2-.3-.2-.9-.3-1.5-.3s-1.6.1-2,.5c-.4.3-.7.8-.7,1.4,0,1.3.7,1.6,2.9,2.4,2,.8,3.3,1.7,3.3,3.5s-.4,2-1.2,2.6c-.8.7-2.1,1.1-3.9,1.1s-2.5-.2-3.2-.5c0-1-.2-2.1-.3-3.2.4,0,.9-.1,1.3-.2l.3,2Z" fill="#231f20"/>
    <path d="M118,88.8c-1.9,0-3.3-.6-4.3-1.6-1.1-1-1.8-2.6-1.8-4.6s1.3-4.5,2.8-5.5c1.2-.8,2.5-1.1,3.9-1.1s2.6.3,3.7,1c1.4,1,2.4,2.9,2.4,5s-.7,3.8-2.1,5.2c-1.1,1-2.5,1.5-4.6,1.5h0ZM118.3,87.7c1.1,0,2.2-.4,2.9-1.2.7-.8,1.4-2.2,1.4-4.1s-.5-3-1.4-4c-.8-.9-1.7-1.2-2.9-1.2s-1.9.4-2.7,1c-.9.8-1.7,2.3-1.7,4.3s.4,3,1.4,4c.8.8,1.8,1.2,2.8,1.2h0Z" fill="#231f20"/>
    <path d="M126.7,87.4c0,0,.1,0,.1,0v-9.8h-1.5c0-.4,0-.8,0-1.2h3.4c2.3,3.2,4.8,6.9,6.9,10.1h.1c0-3,0-6,0-8.9h-2c0-.4,0-.8,0-1.1.8,0,1.7,0,2.6,0h2.2c0,.3,0,.7,0,1.1h-1.3c0,0,0,0,0,.1v10.9c-.5.1-1.1.2-1.5.2-2-2.6-4.7-6.4-7.1-10h-.1v8.6h2.1c0,.4,0,.8,0,1.2h-4.9c0-.3,0-.7,0-1.1h1.3Z" fill="#231f20"/>
    <path d="M64.9,112.8c.1,0,.2,0,.2-.2v-19.9h-2.7c0-.7,0-1.2,0-1.7,1.6,0,4.5,0,6.4,0,3.1,0,5.2.2,7,.9,1.6.8,2.8,2.5,2.8,4.4,0,2.7-1.9,4.7-4.3,5.5v.2c3.3.4,5.8,2.8,5.8,5.7s-3.6,6.9-9,6.9-3.7,0-4.4,0h-4.3c0-.5,0-1.1,0-1.7h2.5ZM67.9,111.5c0,1.1.7,1.3,3.1,1.3s6.1-1.3,6.1-4.9-1.7-4.9-6.9-4.9-1.9,0-2.2,0v8.4ZM68,101.3c.2,0,.8,0,1.7,0,3.2,0,6.1-1.8,6.1-4.6s-1.8-4.4-5.7-4.4-1.8,0-2.1.1v8.8Z" fill="#231f20"/>
    <path d="M83.1,109.4c0,0,.1,0,.1-.1v-14.5h-2.2v-1.7h13.4c.1,1.4.2,2.9.2,4.4-.5,0-1.2.1-1.9.2l-.5-2.3c0-.3-.2-.4-.7-.5-.7,0-2.8-.1-4.7-.1h-.8v6.2c1.7,0,3.1,0,4.7,0,.5,0,.7-.2.7-.5v-1.3h1.9c0,.9,0,1.9,0,2.8v2.7c-.6,0-1.2,0-1.9,0v-1.3c-.1-.5-.3-.6-.8-.6-1.3,0-2.8,0-4.6,0v6.2c0,.5,0,.6,1.6.6,2.4,0,4.1-.1,4.7-.2.3,0,.4-.2.5-.5l.9-2.4c.7.1,1.3.2,1.8.3-.3,1.6-.6,3.1-1,4.5h-13.6c0-.5,0-1,0-1.6h2.1Z" fill="#231f20"/>
    <path d="M96.2,94.6c0-.6,0-1.1,0-1.6h7.8c0,.5,0,1,0,1.6h-2.7c0,0,0,.1,0,.1v14c0,.5,0,.6,1.2.6,3.2,0,4.2,0,4.8-.2.3,0,.4-.3.5-.6l1.1-3.1c.7,0,1.3.3,1.9.4-.3,1.7-.8,3.6-1.2,5.1h-13.4c0-.5,0-1,0-1.6h2.1c0-.1.1-.1.1-.2v-14.5h-2.2Z" fill="#231f20"/>
    <path d="M111,94.6c0-.6,0-1.1,0-1.6h7.8c0,.5,0,1,0,1.6h-2.7c0,0,0,.1,0,.1v14c0,.5,0,.6,1.2.6,3.2,0,4.2,0,4.8-.2.3,0,.4-.3.5-.6l1.1-3.1c.7,0,1.3.3,1.9.4-.3,1.7-.8,3.6-1.2,5.1h-13.4c0-.5,0-1,0-1.6h2.1c0-.1.1-.1.1-.2v-14.5h-2.2Z" fill="#231f20"/>
  </g>
  <g>
    <path d="M14.8,100.5s0,0,0,0c.7-1.3,1.7-3.2,2.4-4.5,0,0,.3,0,.4,0,.3,1.3.6,3.2.8,4.5h.4c0,.1,0,.3,0,.4h-.7c-.3,0-.7,0-1,0,0-.1,0-.2,0-.3h.6s0,0,0,0c0-.3-.1-.7-.2-1.1,0,0,0,0,0,0h-1.8c-.2.4-.4.8-.6,1.1h.7c0,.1,0,.3,0,.4h-1c-.2,0-.4,0-.6,0,0-.1,0-.2,0-.3h.4ZM17.3,96.8c-.4.7-.8,1.5-1.1,2.2,0,0,0,0,0,0h1.6c-.1-.7-.3-1.5-.4-2.2h0Z" fill="#717275"/>
    <path d="M19.5,96.2c0-.1,0-.2,0-.3.7,0,1.1-.2,1.1-.2s.1,0,.2.2c-.3,1.4-.9,3.9-1.1,4.7,0,0,0,0,0,0,.1,0,.4,0,.6-.1,0,.1,0,.2,0,.3-.4.1-.8.2-1,.2s-.2-.1-.2-.2c.2-.8.8-3.6,1.1-4.6h-.7Z" fill="#717275"/>
    <path d="M20.7,98.2c0-.1,0-.2,0-.3.5,0,1-.2,1-.2s.2.1.2.2c-.1.5-.4,1.3-.5,1.7,0,.2-.1.5-.1.7s.1.3.2.3c.4,0,1.2-.8,1.3-1.2,0-.2.3-1.1.3-1.5.2,0,.3,0,.5,0,0,.4-.5,2.1-.6,2.8,0,0,0,0,0,0,0,0,.3,0,.5-.1,0,.1,0,.2,0,.3-.3.1-.7.2-.9.2s-.2-.1-.2-.2c0-.1,0-.4.1-.7h0c-.5.6-1.1.9-1.4.9-.1,0-.4-.2-.5-.3,0,0,0-.2,0-.3,0-.4.3-1.4.5-2.2h-.6Z" fill="#717275"/>
    <path d="M24,98.2c0-.1,0-.2,0-.3.6,0,.9-.2.9-.2s.1,0,.2.2c0,.2,0,.4-.2.8h0c.6-.7,1.1-.9,1.4-.9.2,0,.3.1.5.3,0,0,0,.1,0,.2s0,.2,0,.4h0c.6-.7,1.1-.9,1.4-.9.1,0,.4.2.5.4,0,0,0,.1,0,.2,0,.3-.2,1.2-.5,2.2,0,0,0,0,0,0,0,0,.3,0,.5-.1,0,.1,0,.2,0,.3-.3.1-.6.2-1,.2s-.2-.1-.2-.2c.1-.4.3-1.1.4-1.4,0-.2.2-.6.2-.9s0-.3-.3-.3c-.4,0-1.2.9-1.3,1.3-.1.4-.2.9-.3,1.4-.2,0-.3,0-.5,0,0-.4.3-1.3.4-1.7,0-.2.1-.6.1-.8s0-.2-.2-.2c-.4,0-1.2.8-1.3,1.3,0,.3-.3,1.1-.3,1.4-.2,0-.3,0-.5,0,.2-.7.4-1.9.6-2.7h-.6Z" fill="#717275"/>
    <path d="M29.1,98.2c0-.1,0-.2,0-.3.5,0,.9-.2,1-.2s.2,0,.2.1c0,.2-.1.5-.2.8h0c.6-.7,1.2-1,1.5-1,.2,0,.4.2.5.4,0,0,0,.2,0,.2,0,.3-.3,1.3-.6,2.2,0,0,0,0,0,0,0,0,.3,0,.5-.1,0,.1,0,.2,0,.3-.3.1-.7.2-1,.2s-.2-.1-.2-.2c.1-.4.4-1.2.5-1.5,0-.2.1-.5.1-.8s0-.3-.2-.3c-.5,0-1.3.8-1.4,1.2,0,.3-.3,1.2-.4,1.5-.2,0-.3,0-.5,0,.2-.7.5-1.9.6-2.7h-.6Z" fill="#717275"/>
    <path d="M32.5,98.2c0-.1,0-.2,0-.3.6,0,1-.2,1-.2s.2.1.2.2c-.2.7-.5,2.3-.6,2.7,0,0,0,0,0,0,.1,0,.3,0,.6-.1,0,.1,0,.2,0,.3-.3,0-.6.2-.9.2s-.2-.1-.3-.2c.2-.7.4-1.7.6-2.6h-.6ZM33.6,96.3c.2,0,.3.2.3.4s-.2.4-.4.4-.4-.2-.4-.4.2-.4.4-.4h0Z" fill="#717275"/>
    <path d="M36.6,98.2c-.3-.3-.5-.5-.5-1s.2-.7.4-.9c.2-.2.5-.3,1-.3s.6,0,.8.3c.2.2.3.4.3.7,0,.5-.4,1-1.1,1.3h0c.4.4.9,1,1.2,1.4.2-.3.4-.7.5-1.1,0,0,0,0,0,0h-.4c0-.1,0-.2,0-.3h.7c.2,0,.4,0,.6,0,0,.1,0,.2,0,.3h-.4c-.1.7-.4,1.1-.8,1.5.1.2.3.4.3.5,0,0,.1.1.2.1h.5c0,.1,0,.2,0,.3-.3,0-.7,0-.9,0-.1-.1-.3-.4-.4-.6-.4.3-.8.7-1.7.7s-.8-.1-1-.3c-.2-.2-.4-.5-.4-.9,0-.6.5-1.2,1.3-1.5h0ZM35.8,99.7c0,.3,0,.5.3.7.2.1.4.2.7.2.5,0,1-.2,1.4-.6-.4-.6-.9-1.2-1.4-1.5-.5.2-1,.6-1,1.2h0ZM36.5,97.2c0,.4.2.6.5.9.5-.2.9-.5.9-1s0-.4-.2-.5c-.1-.1-.3-.2-.5-.2s-.4,0-.6.2c-.2.1-.3.4-.3.6h0Z" fill="#717275"/>
    <path d="M41.7,100.5s0,0,0,0l.7-4.1h-.5c0-.1,0-.3,0-.4.2,0,.5,0,.8,0s1.4,0,1.6,0c.3,0,.4,0,.6,0,0,.4,0,.8-.1,1.2-.1,0-.2,0-.4,0v-.7c0,0,0-.1-.2-.1-.2,0-.7,0-1.2,0h-.2l-.3,1.9c.4,0,.8,0,1.1,0,.2,0,.2,0,.2-.1v-.4c.2,0,.3,0,.5,0,0,.2,0,.5-.1.7,0,.2,0,.5-.1.7-.1,0-.2,0-.4,0v-.4c0-.1,0-.2-.1-.2-.3,0-.7,0-1.1,0l-.3,1.8h.9c0,.1,0,.3,0,.4-.3,0-.7,0-1.1,0s-.6,0-.9,0c0-.1,0-.2,0-.3h.5Z" fill="#717275"/>
    <path d="M44.9,98.2c0-.1,0-.2,0-.3.5,0,.9-.2.9-.2s.2.1.2.2c0,.2-.1.5-.2.9h0c.4-.6.9-1.1,1.2-1.1s.3,0,.4.1c0,.2-.2.5-.2.6,0,0-.2,0-.3,0-.3,0-1,.8-1.2,1.4,0,.2-.2.9-.3,1.2h-.5c.1-.6.4-1.9.6-2.7h-.6Z" fill="#717275"/>
    <path d="M47.4,98.2c0-.1,0-.2,0-.3.6,0,1-.2,1-.2s.2.1.2.2c-.2.7-.5,2.3-.6,2.7,0,0,0,0,0,0,.1,0,.3,0,.6-.1,0,.1,0,.2,0,.3-.3,0-.6.2-.9.2s-.2-.1-.3-.2c.2-.7.4-1.7.6-2.6h-.6ZM48.6,96.3c.2,0,.3.2.3.4s-.2.4-.4.4-.4-.2-.4-.4.2-.4.4-.4h0Z" fill="#717275"/>
    <path d="M48.8,100.1c0-.4.2-1.2.7-1.8.4-.4.7-.6,1.1-.6s.8.4.8.8c0,.2-.2.5-.4.7-.4.2-.9.3-1.6.3,0,.2,0,.4,0,.6,0,.3.2.6.5.6s.8-.2,1.2-.4c0,0,0,.2.1.3-.4.3-1,.5-1.5.5s-.9-.3-.9-.9h0ZM50.5,98.1c-.2,0-.4.1-.6.3-.1.2-.3.4-.4.7.4,0,.8,0,1.1-.2.2,0,.3-.2.3-.4s-.1-.5-.4-.5h0Z" fill="#717275"/>
    <path d="M51.6,98.2c0-.1,0-.2,0-.3.5,0,.9-.2,1-.2s.2,0,.2.1c0,.2-.1.5-.2.8h0c.6-.7,1.2-1,1.5-1,.2,0,.4.2.5.4,0,0,0,.2,0,.2,0,.3-.3,1.3-.6,2.2,0,0,0,0,0,0,0,0,.3,0,.5-.1,0,.1,0,.2,0,.3-.3.1-.7.2-1,.2s-.2-.1-.2-.2c.1-.4.4-1.2.5-1.5,0-.2.1-.5.1-.8s0-.3-.2-.3c-.5,0-1.3.8-1.4,1.2,0,.3-.3,1.2-.4,1.5-.2,0-.3,0-.5,0,.2-.7.5-1.9.6-2.7h-.6Z" fill="#717275"/>
    <path d="M57,100c-.6.7-1.1,1-1.4,1-.2,0-.4-.2-.5-.4,0,0,0-.2,0-.3,0-.3,0-.8.2-1.1.2-.6.8-1.5,1.5-1.5s.6.1.7.3h0c.1-.5.3-1.2.4-1.8h-.7c0,0,0-.2,0-.3.6,0,1-.2,1.1-.2s.1,0,.2.2c-.1.6-1,4.1-1.1,4.7,0,0,0,0,0,0,0,0,.2,0,.5-.1,0,.1,0,.2,0,.3-.3.1-.6.2-.9.2s-.2,0-.2-.2c0-.1,0-.4.2-.8h0ZM55.7,100.5c.4,0,1.3-.9,1.4-1.3,0-.2.2-.7.2-.9-.2-.2-.4-.3-.7-.3-.4,0-.8.5-1,.9-.1.4-.3.8-.3,1.2s.1.3.3.3h0Z" fill="#717275"/>
    <path d="M60.1,98.2s0,0,0,0c0,0-.2,0-.4,0s-.3,0-.4,0c-.1,0-.3.2-.3.5s.2.4.5.5c.5.2.8.4.8.9s-.2.7-.5.8c-.2.1-.5.2-.9.2s-.6,0-.7-.1c0-.3,0-.6,0-.9.1,0,.2,0,.3,0v.5c0,0,0,0,0,0,0,0,.3,0,.4,0s.4,0,.5-.1c.1,0,.2-.2.2-.5s-.2-.4-.5-.6c-.4-.2-.8-.4-.8-.8s.3-.7.6-.8c.3-.1.5-.2.8-.2s.6,0,.7.2c0,.3,0,.6,0,.8,0,0-.2,0-.3,0v-.5Z" fill="#717275"/>
    <path d="M19.6,105.9c0,.6-.3,1.3-.8,1.8-.3.3-.6.4-1.1.4s-.6-.2-.8-.3c-.1-.1-.2-.4-.2-.7,0-.7.3-1.4.8-1.8.3-.3.7-.4,1-.4s.5.1.7.3c.2.2.3.4.3.8h0ZM17.9,107.8c.2,0,.5-.1.6-.3.3-.3.5-1,.5-1.5s0-.4-.1-.6c0-.1-.2-.2-.4-.2s-.5.1-.7.4c-.2.3-.4.8-.4,1.4s0,.4.1.5c0,.1.2.2.4.2h0Z" fill="#717275"/>
    <path d="M22.3,103c.2,0,.3,0,.4,0,0,.1-.2.4-.3.5,0,0-.3-.1-.5-.1s-.4,0-.5.3c-.2.3-.3.6-.4,1.2.4,0,.7,0,1.1,0,0,.1,0,.3,0,.4-.3,0-.7,0-1,0-.3,1.2-.5,2.5-.8,3.9-.2,0-.3,0-.5,0,.3-1.4.6-2.7.8-3.9h-.6c0-.1,0-.2,0-.3.2,0,.4,0,.6,0,0,0,0,0,0,0,.1-.7.3-1,.6-1.4.4-.4.9-.5,1.2-.5h0Z" fill="#717275"/>
    <path d="M23.4,107.7s0,0,0,0l.7-4.1h-.5c0-.1,0-.3,0-.4.2,0,.5,0,.8,0s1.4,0,1.6,0c.3,0,.4,0,.6,0,0,.4,0,.8-.1,1.2-.1,0-.2,0-.4,0v-.7c0,0,0-.1-.2-.1-.2,0-.7,0-1.2,0h-.2l-.3,1.9c.4,0,.8,0,1.1,0,.2,0,.2,0,.2-.1v-.4c.2,0,.3,0,.5,0,0,.2,0,.5-.1.7,0,.2,0,.5-.1.7-.1,0-.2,0-.4,0v-.4c0-.1,0-.2-.1-.2-.3,0-.7,0-1.1,0l-.3,1.8h.9c0,.1,0,.3,0,.4-.3,0-.7,0-1.1,0s-.6,0-.9,0c0-.1,0-.2,0-.3h.5Z" fill="#717275"/>
    <path d="M27,103.3c0-.1,0-.2,0-.3.7,0,1.1-.2,1.1-.2s.1,0,.2.2c-.3,1.4-.9,3.9-1.1,4.7,0,0,0,0,0,0,.1,0,.4,0,.6-.1,0,.1,0,.2,0,.3-.4.1-.8.2-1,.2s-.2-.1-.2-.2c.2-.8.8-3.6,1.1-4.6h-.7Z" fill="#717275"/>
    <path d="M30.8,105.9c0,.6-.3,1.3-.8,1.8-.3.3-.6.4-1.1.4s-.6-.2-.8-.3c-.1-.1-.2-.4-.2-.7,0-.7.3-1.4.8-1.8.3-.3.7-.4,1-.4s.5.1.7.3c.2.2.3.4.3.8h0ZM29.2,107.8c.2,0,.5-.1.6-.3.3-.3.5-1,.5-1.5s0-.4-.1-.6c0-.1-.2-.2-.4-.2s-.5.1-.7.4c-.2.3-.4.8-.4,1.4s0,.4.1.5c0,.1.2.2.4.2h0Z" fill="#717275"/>
    <path d="M31.1,105.3c0-.1,0-.2,0-.3.5,0,.9-.2.9-.2s.2.1.2.2c0,.2-.1.5-.2.9h0c.4-.6.9-1.1,1.2-1.1s.3,0,.4.1c0,.2-.2.5-.2.6,0,0-.2,0-.3,0-.3,0-1,.8-1.2,1.4,0,.2-.2.9-.3,1.2h-.5c.1-.6.4-1.9.6-2.7h-.6Z" fill="#717275"/>
    <path d="M33.6,105.3c0-.1,0-.2,0-.3.6,0,1-.2,1-.2s.2.1.2.2c-.2.7-.5,2.3-.6,2.7,0,0,0,0,0,0,.1,0,.3,0,.6-.1,0,.1,0,.2,0,.3-.3,0-.6.2-.9.2s-.2-.1-.3-.2c.2-.7.4-1.7.6-2.6h-.6ZM34.7,103.4c.2,0,.3.2.3.4s-.2.4-.4.4-.4-.2-.4-.4.2-.4.4-.4h0Z" fill="#717275"/>
    <path d="M37.1,107.1c-.6.7-1.1,1-1.4,1-.2,0-.4-.2-.5-.4,0,0,0-.2,0-.3,0-.3,0-.8.2-1.1.2-.6.8-1.5,1.5-1.5s.6.1.7.3h0c.1-.5.3-1.2.4-1.8h-.7c0,0,0-.2,0-.3.6,0,1-.2,1.1-.2s.1,0,.2.2c-.1.6-1,4.1-1.1,4.7,0,0,0,0,0,0,0,0,.2,0,.5-.1,0,.1,0,.2,0,.3-.3.1-.6.2-.9.2s-.2,0-.2-.2c0-.1,0-.4.2-.8h0ZM35.8,107.7c.4,0,1.3-.9,1.4-1.3,0-.2.2-.7.2-.9-.2-.2-.4-.3-.7-.3-.4,0-.8.5-1,.9-.1.4-.3.8-.3,1.2s.1.3.3.3h0Z" fill="#717275"/>
    <path d="M40.2,107.1c-.7.8-1.2,1-1.4,1-.2,0-.4-.2-.5-.4,0,0,0-.2,0-.3,0-.3,0-.7.2-1.1.2-.6.8-1.5,1.5-1.5s.5.1.7.4h0l.2-.4c.1,0,.3,0,.4.1-.2.7-.5,2-.7,2.8,0,0,0,0,0,0,0,0,.3,0,.5-.1,0,.1,0,.2,0,.3-.3.1-.7.2-.9.2s-.2,0-.2-.2c0-.1.1-.4.2-.8h0ZM39.9,105.2c-.4,0-.7.5-.9.9-.2.4-.3.9-.3,1.2s.1.3.2.3c.3,0,1.2-.8,1.3-1.2,0-.1.2-.7.2-.9-.2-.2-.4-.4-.6-.4h0Z" fill="#717275"/>
    <path d="M46.3,103.7s0,0,0,0c-.1,0-.4-.1-.6-.1-.4,0-.9.1-1.2.4-.6.5-.9,1.4-.9,2.1s0,.8.3,1.1c.2.3.6.5,1.1.5s1-.2,1.3-.3c0,.1,0,.3,0,.4-.6.2-1.1.3-1.5.3-.5,0-1-.2-1.3-.5-.4-.4-.5-.9-.5-1.5,0-1.1.6-2,1.3-2.5.6-.4,1.2-.5,1.7-.5s.8,0,.9.2c0,.4,0,.8-.1,1.3-.1,0-.3,0-.4,0v-.8Z" fill="#717275"/>
    <path d="M49.4,105.9c0,.6-.3,1.3-.8,1.8-.3.3-.6.4-1.1.4s-.6-.2-.8-.3c-.1-.1-.2-.4-.2-.7,0-.7.3-1.4.8-1.8.3-.3.7-.4,1-.4s.5.1.7.3c.2.2.3.4.3.8h0ZM47.7,107.8c.2,0,.5-.1.6-.3.3-.3.5-1,.5-1.5s0-.4-.1-.6c0-.1-.2-.2-.4-.2s-.5.1-.7.4c-.2.3-.4.8-.4,1.4s0,.4.1.5c0,.1.2.2.4.2h0Z" fill="#717275"/>
    <path d="M49.8,103.3c0-.1,0-.2,0-.3.7,0,1.1-.2,1.1-.2s.1,0,.2.2c-.3,1.4-.9,3.9-1.1,4.7,0,0,0,0,0,0,.1,0,.4,0,.6-.1,0,.1,0,.2,0,.3-.4.1-.8.2-1,.2s-.2-.1-.2-.2c.2-.8.8-3.6,1.1-4.6h-.7Z" fill="#717275"/>
    <path d="M51.4,103.3c0-.1,0-.2,0-.3.7,0,1.1-.2,1.1-.2s.1,0,.2.2c-.3,1.4-.9,3.9-1.1,4.7,0,0,0,0,0,0,.1,0,.4,0,.6-.1,0,.1,0,.2,0,.3-.4.1-.8.2-1,.2s-.2-.1-.2-.2c.2-.8.8-3.6,1.1-4.6h-.7Z" fill="#717275"/>
    <path d="M52.4,107.2c0-.4.2-1.2.7-1.8.4-.4.7-.6,1.1-.6s.8.4.8.8c0,.2-.2.5-.4.7-.4.2-.9.3-1.6.3,0,.2,0,.4,0,.6,0,.3.2.6.5.6s.8-.2,1.2-.4c0,0,0,.2.1.3-.4.3-1,.5-1.5.5s-.9-.3-.9-.9h0ZM54.1,105.2c-.2,0-.4.1-.6.3-.1.2-.3.4-.4.7.4,0,.8,0,1.1-.2.2,0,.3-.2.3-.4s-.1-.5-.4-.5h0Z" fill="#717275"/>
    <path d="M55.2,106.4c0-.7.5-1.5,1.4-1.5s.4,0,.5,0c0,0,0,0,.1,0,.1,0,.8,0,1,0,0,.1,0,.2,0,.3-.2,0-.5,0-.7,0h0c0,.1.1.3.1.6s0,.6-.3.9c-.2.3-.6.7-1.3.6-.2.2-.4.3-.4.4s.4.2.9.2c.4,0,.7,0,.8.2.2.1.3.3.3.5,0,.5-.6,1.1-1.9,1.1s-1.3-.3-1.3-.7,0-.3.2-.4c.2-.2.4-.2.8-.5h0c-.2-.1-.3-.2-.3-.5s0-.1.6-.5h0c-.3-.2-.5-.5-.5-.9h0ZM57.2,108.8c0-.3-.2-.3-.7-.4-.2,0-.5,0-.6,0-.5.3-.8.5-.8.8s.5.5.9.5c.7,0,1.3-.2,1.3-.7h0ZM55.8,106.4c0,.4.2.7.5.7s.8-.5.8-1.2,0-.4,0-.5c0-.2-.3-.2-.4-.2-.5,0-.8.6-.8,1.3h0Z" fill="#717275"/>
    <path d="M57.9,107.2c0-.4.2-1.2.7-1.8.4-.4.7-.6,1.1-.6s.8.4.8.8c0,.2-.2.5-.4.7-.4.2-.9.3-1.6.3,0,.2,0,.4,0,.6,0,.3.2.6.5.6s.8-.2,1.2-.4c0,0,0,.2.1.3-.4.3-1,.5-1.5.5s-.9-.3-.9-.9h0ZM59.6,105.2c-.2,0-.4.1-.6.3-.1.2-.3.4-.4.7.4,0,.8,0,1.1-.2.2,0,.3-.2.3-.4s-.1-.5-.4-.5h0Z" fill="#717275"/>
  </g>
  <g>
    <path d="M89.4,45.5l2.9-1.9-.2-.4c-1.6.8-3.7,1.2-4.9,1.3-1.9-.7-3.7-1.1-5.5-1.1-2.5,0-4.6.8-6.2,2.2-4.2,3.8-3.6,11.6,1.4,18.5l.4-.2c-3.6-5.9-3.8-12.1-.4-15.2,1.4-1.3,3.3-2,5.5-2,4.3,0,9.3,2.6,13.1,6.7,4.8,5.2,6.8,12,5,16.4l.4.2c3-4.9,1-13-4.8-19.3-2-2.2-4.4-4-6.8-5.3Z" fill="#717275"/>
    <path d="M79.9,50.1c-.3,0-.5.1-.8.2-.9.4-1.6,1.1-1.9,2.1-.3,1-.3,2.1.2,3,.7,1.5,2.1,2.6,3.6,2.6h0c.4,0,.9,0,1.3-.3,1-.4,1.7-1.4,2-2.5l-.4-.2c-.2.2-.5.4-.7.5-.3.1-.6.2-.9.2-1.1,0-2.2-.8-2.7-1.9-.5-1.2-.3-2.5.5-3.4l-.2-.4Z" fill="#717275"/>
    <path d="M97.8,67.9c-1,.9-2.5,1.4-4.2,1.4-3.9,0-8.8-2.5-12.7-6.5-1.4-1.4-2.5-3-3.5-4.5l-.4.2c.8,2.6,2.5,5.3,4.7,7.6,3.5,3.7,8,5.9,11.6,5.9s3-.5,4-1.4c1-.8,1.6-2.1,1.7-3.5h-.4c-.2.2-.5.6-.9.9Z" fill="#717275"/>
    <polygon points="92.2 51.1 92.1 50.7 84.2 53 84.1 53.3 84.1 54.6 84.5 54.8 92.2 51.1" fill="#717275"/>
    <path d="M104.6,51.9c-.3-.7-1.3-.8-1.4-.8l-.2.4c.2.2.3.4.3.5,0,0,0,.1,0,.1,0,0,0,0-.2-.1-.7-.6-1.8-.7-1.8-.7l-.2.4c1.1,1.4,1,1.7,1,1.8,0,0-.1,0-.2,0-.8-1-3.2-2.5-3.3-2.6l-.3.3c3.5,4.4,4,8.6,4,8.6h.4c.4-3.6,1.4-6.3,1.5-6.5.4-.6.5-1.1.3-1.5Z" fill="#717275"/>
    <path d="M107,45.6c.5-1.1.2-2.6-.8-3.5-.6-.6-1.5-1-2.3-1s-.7,0-1,.2c-1.5-1-3.1-1.6-4.5-1.6s-1.5.2-2.1.6v.4c2.3.1,4.7,1.5,6.7,3.6,1.9,2,3,4.5,3.1,6.5-2.2,4.3-1.9,7.3-1.9,7.5h.4c1.2-3.6,2.9-5.6,2.9-5.7h0s0,0,0,0c1.3-1.5,1.1-4.3-.5-7ZM105.1,43.5c-.6-.6-1.2-1.2-1.8-1.6.6,0,1.2.4,1.7.8.5.5.8,1.1.9,1.7-.2-.3-.5-.6-.8-.9Z" fill="#717275"/>
  </g>
  <polygon points="157 136.9 3 136.9 0 133.8 0 125.3 3 122.3 157 122.3 160 125.3 160 133.8 157 136.9" fill="#c3132e"/>
  <g>
    <path d="M16,126c-.3,1.1-.6,2.1-.8,3.1-.3,1.2-.7,2.6-1.1,3.9-.2,0-.6,0-1.1,0-.5-1.6-1-3.3-1.5-5.1h0c-.6,1.8-1.2,3.6-1.8,5.1-.2,0-.7,0-1.1,0-.3-1.4-.6-2.7-.9-4-.2-.9-.4-1.9-.6-2.9,0,0,0,0,0,0h-.6c0-.3,0-.5,0-.8h3.2c0,.2,0,.5,0,.7h-1c0,.6.2,1.6.4,2.4.2,1,.3,1.9.5,2.9h0c.4-1.4,1.3-4.3,1.7-5.7.1,0,.8,0,1,0,.4,1.5,1.1,4.1,1.5,5.7h0c.2-.9.4-1.9.6-2.6.1-.7.4-1.9.5-2.6,0,0,0,0,0,0h-.9c0-.3,0-.5,0-.8.5,0,1.1,0,1.6,0s.8,0,1.1,0c0,.2,0,.5,0,.7h-.6Z" fill="#fff"/>
    <path d="M17.2,132.1s0,0,0,0v-4.4h-.7c0-.3,0-.5,0-.7h4.6c0,.5,0,1,0,1.6-.3,0-.5,0-.8,0l-.2-.7c0,0,0-.1-.2-.2-.2,0-.7,0-1.3,0h-.2v1.8c.4,0,.8,0,1.3,0,.1,0,.2,0,.2-.2v-.4c.3,0,.6,0,.8,0,0,.3,0,.6,0,.9v.9c-.3,0-.5,0-.8,0v-.4c0-.1-.1-.2-.2-.2-.4,0-.8,0-1.2,0v1.7c0,.2,0,.2.5.2s1.1,0,1.2,0c0,0,.1,0,.2-.2l.3-.7c.3,0,.6,0,.8.1-.1.5-.2,1.1-.3,1.6h-4.7c0-.2,0-.5,0-.7h.6Z" fill="#fff"/>
    <path d="M23.3,131.9c0,0,0,0,0,.1.2.1.5.2.8.2.4,0,.8,0,1-.3.2-.2.2-.3.2-.6,0-.6-.4-.7-1.3-1.1-.9-.4-1.7-.8-1.7-1.7s.3-1,.6-1.3c.4-.3,1-.5,2-.5s1.1.1,1.4.2c0,.5.1,1.1.1,1.6-.2,0-.6,0-.8,0l-.2-.9s0,0,0,0c-.1,0-.4-.2-.6-.2-.3,0-.7,0-.9.2-.2.1-.3.3-.3.6,0,.5.3.6,1.3,1,1,.4,1.7.9,1.7,1.7s-.2,1-.6,1.3c-.4.3-1.1.5-2.1.5s-1.2,0-1.6-.2c0-.5-.1-1.1-.2-1.6.3,0,.6-.1.9-.1l.2.9Z" fill="#fff"/>
    <path d="M29.5,132.1s0,0,0,0v-4.4c-.5,0-.8,0-.9,0-.2,0-.2,0-.2.2l-.2.9c-.3,0-.6,0-.9,0,0-.7,0-1.3.1-1.9.3,0,.7,0,1,0h3.5c.4,0,.7,0,1,0,0,.6,0,1.2,0,1.8-.3,0-.6,0-.9,0l-.2-.9c0-.1,0-.2-.2-.2-.2,0-.4,0-.9,0v4.4s.8,0,.8,0c0,.2,0,.5,0,.7-.4,0-1,0-1.4,0s-1,0-1.5,0c0-.2,0-.5,0-.7h.8Z" fill="#fff"/>
    <path d="M34.3,132.1s0,0,0,0v-4.4h-.7c0-.3,0-.5,0-.7h4.6c0,.5,0,1,0,1.6-.3,0-.5,0-.8,0l-.2-.7c0,0,0-.1-.2-.2-.2,0-.7,0-1.3,0h-.2v1.8c.4,0,.8,0,1.3,0,.1,0,.2,0,.2-.2v-.4c.3,0,.6,0,.8,0,0,.3,0,.6,0,.9v.9c-.3,0-.5,0-.8,0v-.4c0-.1-.1-.2-.2-.2-.4,0-.8,0-1.2,0v1.7c0,.2,0,.2.5.2s1.1,0,1.2,0c0,0,.1,0,.2-.2l.3-.7c.3,0,.6,0,.8.1-.1.5-.2,1.1-.3,1.6h-4.7c0-.2,0-.5,0-.7h.6Z" fill="#fff"/>
    <path d="M39.2,127.6c0-.2,0-.5,0-.7.8,0,1.6,0,2.3,0s.9,0,1.5.1c.7.2,1.3.8,1.3,1.4s-.6,1.3-1.3,1.6h0c.5.2.7.8,1.1,1.6.2.4.3.5.4.5h.6c0,.3,0,.5,0,.7-.3,0-.6,0-.8,0s-.7,0-.9,0c-.3-.4-.8-1.5-1.1-2-.2-.3-.4-.4-.7-.4s-.3,0-.4,0v1.6s.7,0,.7,0c0,.2,0,.5,0,.7h-2.6v-.7h.6s0,0,0,0v-4.4h-.6ZM41.2,129.8c0,0,.2,0,.4,0,.9,0,1.4-.6,1.4-1.1s-.5-1.1-1.3-1.1-.4,0-.4,0v2.1Z" fill="#fff"/>
    <path d="M46.3,132.1s0,0,0,0v-4.4h-.7c0-.3,0-.5,0-.7h1.9c.9,1.3,2.1,3.1,3,4.4h0c0-1.2,0-2.5,0-3.7h-.8c0-.3,0-.5,0-.7h1.3c.4,0,.8,0,1.1,0,0,.2,0,.5,0,.7h-.6s0,0,0,0v5.1c-.3,0-.7.2-1.1.2-.8-1-2-2.7-3.1-4.3h0c0,1.1,0,2.3,0,3.5h.9c0,.3,0,.5,0,.7-.4,0-.9,0-1.4,0s-.7,0-1.1,0c0-.2,0-.5,0-.7h.6Z" fill="#fff"/>
    <path d="M55.4,126c0-.2,0-.5,0-.7.4,0,1,0,1.5,0s1,0,1.4,0c0,.2,0,.5,0,.7h-.7s0,0,0,0v2.6c.2,0,.4,0,.7,0,.5-.5,1.5-1.7,2-2.5,0,0,0,0,0,0h-.7c0-.3,0-.5,0-.8h1.6c.4,0,.7,0,1,0,0,.2,0,.5,0,.7h-.5c-.9,1.1-1.7,2-2.4,2.7h0c.4.4.9.9,1.3,1.6.3.5.5.9.9,1.5.1.2.2.3.4.3h.7c0,.3,0,.6,0,.8-.3,0-.8,0-1.1,0-.3,0-.7,0-1,0-.3-.3-.7-1.2-1.1-1.9-.4-.7-.9-1.6-1.2-1.6s-.5,0-.6,0v2.7s.8,0,.8,0c0,.2,0,.5,0,.7-.4,0-1,0-1.5,0s-1,0-1.5,0c0-.2,0-.5,0-.7h.7s0,0,0,0v-6h-.7Z" fill="#fff"/>
    <path d="M63.6,132.1s0,0,0,0v-4.4h-.7c0-.3,0-.5,0-.7h4.6c0,.5,0,1,0,1.6-.3,0-.5,0-.8,0l-.2-.7c0,0,0-.1-.2-.2-.2,0-.7,0-1.3,0h-.2v1.8c.4,0,.8,0,1.3,0,.1,0,.2,0,.2-.2v-.4c.3,0,.6,0,.8,0,0,.3,0,.6,0,.9v.9c-.3,0-.5,0-.8,0v-.4c0-.1-.1-.2-.2-.2-.4,0-.8,0-1.2,0v1.7c0,.2,0,.2.5.2s1.1,0,1.2,0c0,0,.1,0,.2-.2l.3-.7c.3,0,.6,0,.8.1-.1.5-.2,1.1-.3,1.6h-4.7c0-.2,0-.5,0-.7h.6Z" fill="#fff"/>
    <path d="M69.2,132.1s0,0,0,0v-4.4h-.7c0-.3,0-.5,0-.7h1.9c.9,1.3,2.1,3.1,3,4.4h0c0-1.2,0-2.5,0-3.7h-.8c0-.3,0-.5,0-.7h1.3c.4,0,.8,0,1.1,0,0,.2,0,.5,0,.7h-.6s0,0,0,0v5.1c-.3,0-.7.2-1.1.2-.8-1-2-2.7-3.1-4.3h0c0,1.1,0,2.3,0,3.5h.9c0,.3,0,.5,0,.7-.4,0-.9,0-1.4,0s-.7,0-1.1,0c0-.2,0-.5,0-.7h.6Z" fill="#fff"/>
    <path d="M77.8,132.1s0,0,0,0v-4.4c-.5,0-.8,0-.9,0-.2,0-.2,0-.2.2l-.2.9c-.3,0-.6,0-.9,0,0-.7,0-1.3.1-1.9.3,0,.7,0,1,0h3.5c.4,0,.7,0,1,0,0,.6,0,1.2,0,1.8-.3,0-.6,0-.9,0l-.2-.9c0-.1,0-.2-.2-.2-.2,0-.4,0-.9,0v4.4s.8,0,.8,0c0,.2,0,.5,0,.7-.4,0-1,0-1.4,0s-1,0-1.5,0c0-.2,0-.5,0-.7h.8Z" fill="#fff"/>
    <path d="M83.8,130.4c0,.9.1,1.2.4,1.5s.5.3.9.3.7-.1.9-.3c.2-.2.4-.6.4-1.5s0-1.9,0-2.6c0,0,0,0,0,0h-.8c0-.3,0-.5,0-.7.4,0,.9,0,1.3,0s.8,0,1.2,0c0,.2,0,.5,0,.7h-.6s0,2.7,0,2.7c0,1-.3,1.7-.7,2-.3.3-.9.6-1.8.6s-1.5-.2-1.9-.6c-.6-.5-.7-1.1-.7-1.9v-2.8s0,0,0,0h-.6c0-.3,0-.5,0-.7.4,0,.9,0,1.3,0s1,0,1.5,0c0,.2,0,.5,0,.7h-.8s0,2.7,0,2.7Z" fill="#fff"/>
    <path d="M92.5,127.9c0,0,0-.1,0-.1-.2,0-.4-.1-.6-.1-.4,0-.9.1-1.3.5-.4.4-.7,1.1-.7,1.9s.2,1.2.6,1.6c.3.3.9.5,1.4.5s1.2-.2,1.6-.3c0,.2.1.5.2.8-.7.2-1.5.4-2.1.4s-1.5-.2-2.1-.6c-.6-.4-1.1-1.2-1.1-2.2s.6-2.2,1.3-2.7c.7-.5,1.5-.7,2.4-.7s1.1,0,1.4.2c0,.6,0,1.2.1,1.8-.3,0-.6,0-.9,0l-.2-1Z" fill="#fff"/>
    <path d="M94.4,127.6c0-.2,0-.5,0-.7.5,0,1,0,1.4,0s.9,0,1.2,0c0,.2,0,.5,0,.7h-.6s0,0,0,0v1.8c.1,0,.4,0,.6,0,.3-.3,1.1-1.2,1.5-1.7,0,0,0,0,0,0h-.5c0-.3,0-.5,0-.7h1.4c.3,0,.6,0,1,0,0,.2,0,.5,0,.7h-.6c-.7.7-1.3,1.4-1.8,1.9h0c.4.3.7.7,1.1,1.3.2.4.4.7.7,1.1,0,.1.2.2.4.2h.6c0,.3,0,.5,0,.7-.4,0-.7,0-1,0s-.6,0-.9,0c-.2-.3-.6-.9-.9-1.5-.3-.6-.7-1.2-1-1.2s-.4,0-.5,0v1.9s.7,0,.7,0c0,.2,0,.5,0,.7-.4,0-.9,0-1.3,0s-.9,0-1.4,0c0-.2,0-.5,0-.7h.6s0,0,0,0v-4.4h-.6Z" fill="#fff"/>
    <path d="M103.1,132.1s0,0,0,0v-1.5c-.5-.8-1.3-2.1-1.7-2.9,0,0,0,0,0,0h-.5c0-.3,0-.5,0-.7h1.1c.6,0,1.2,0,1.7,0,0,.2,0,.5,0,.7h-.7c.3.6.8,1.6,1.1,2.2h0c.3-.5.9-1.6,1.1-2.1,0,0,0,0,0,0h-.6c0-.3,0-.5,0-.7h1.4c.3,0,.6,0,.9,0,0,.2,0,.5,0,.7h-.5c-.5.8-1.3,2.1-1.9,3v1.5s.8,0,.8,0c0,.2,0,.5,0,.7-.4,0-1,0-1.4,0s-1,0-1.5,0c0-.2,0-.5,0-.7h.7Z" fill="#fff"/>
    <path d="M109.6,129.5c0-1.6.7-2.8,1.6-3.5.8-.7,1.8-.9,2.8-.9s1.2,0,1.5.2c0,.7.1,1.4.1,2.2-.3,0-.6,0-.9.1l-.2-1.2c0,0,0-.1,0-.2-.2-.1-.5-.2-.8-.2-.5,0-1.1.2-1.5.6-.6.6-.9,1.5-.9,2.5s.2,1.7.7,2.2c.4.4,1.1.7,1.7.7s1.5-.2,2-.4c0,.2.1.6.2.8-.8.3-1.7.6-2.4.6s-1.7-.2-2.4-.7c-.7-.6-1.3-1.6-1.3-2.8h0Z" fill="#fff"/>
    <path d="M116.9,132.1s0,0,0,0v-4.4h-.7v-.7h2.8c0,.2,0,.5,0,.7h-.7s0,0,0,0v1.7s0,0,0,0h2.5v-1.7h-.7c0-.3,0-.5,0-.7h2.7c0,.2,0,.5,0,.7h-.6s0,0,0,0v4.4s.6,0,.6,0c0,.2,0,.5,0,.7-.4,0-.9,0-1.3,0s-1,0-1.4,0c0-.2,0-.5,0-.7h.7s0,0,0,0v-1.9s0,0,0,0h-2.5s0,2,0,2h.8v.7c-.4,0-.9,0-1.4,0s-.9,0-1.3,0c0-.2,0-.5,0-.7h.6Z" fill="#fff"/>
    <path d="M123.8,132.1s0,0,0,0c.6-1.5,1.5-3.7,2.2-5.2.2,0,.6,0,1.1,0,.6,1.6,1.4,3.8,2,5.3h.5c0,.3,0,.5,0,.7h-2.6c0-.2,0-.4,0-.7h.7s0,0,0,0c0-.3-.2-.6-.3-.8,0,0,0,0,0,0h-2.2c-.1.3-.2.7-.4.9h.8c0,.3,0,.5,0,.7h-2.4c0-.2,0-.4,0-.7h.5ZM126.4,128.1c-.3.8-.6,1.7-.9,2.3,0,0,0,0,0,0h1.8c-.3-.7-.6-1.6-.8-2.4h0Z" fill="#fff"/>
    <path d="M130.2,127.6c0-.3,0-.5,0-.7.7,0,1.5,0,2.2,0s1.1,0,1.7.2c.8.2,1.2.9,1.2,1.6s-.5,1.4-1.2,1.7c-.4.2-.9.3-1.4.3s-.5,0-.5,0v1.4s1,0,1,0v.7h-2.9c0-.2,0-.5,0-.7h.6s0,0,0,0v-4.4h-.7ZM132.2,129.9c0,0,.2,0,.4,0,.3,0,.6,0,.8-.2.4-.2.5-.6.5-1,0-.8-.6-1.2-1.4-1.2s-.3,0-.4,0v2.3Z" fill="#fff"/>
    <path d="M138.1,132.1s0,0,0,0v-4.4c-.5,0-.8,0-.9,0-.2,0-.2,0-.2.2l-.2.9c-.3,0-.6,0-.9,0,0-.7,0-1.3.1-1.9.3,0,.7,0,1,0h3.5c.4,0,.7,0,1,0,0,.6,0,1.2,0,1.8-.3,0-.6,0-.9,0l-.2-.9c0-.1,0-.2-.2-.2-.2,0-.4,0-.9,0v4.4s.8,0,.8,0c0,.2,0,.5,0,.7-.4,0-1,0-1.4,0s-1,0-1.5,0c0-.2,0-.5,0-.7h.8Z" fill="#fff"/>
    <path d="M142.9,132.1s0,0,0,0v-4.4h-.7c0-.3,0-.5,0-.7h4.6c0,.5,0,1,0,1.6-.3,0-.5,0-.8,0l-.2-.7c0,0,0-.1-.2-.2-.2,0-.7,0-1.3,0h-.2v1.8c.4,0,.8,0,1.3,0,.1,0,.2,0,.2-.2v-.4c.3,0,.6,0,.8,0,0,.3,0,.6,0,.9v.9c-.3,0-.5,0-.8,0v-.4c0-.1-.1-.2-.2-.2-.4,0-.8,0-1.2,0v1.7c0,.2,0,.2.5.2s1.1,0,1.2,0c0,0,.1,0,.2-.2l.3-.7c.3,0,.6,0,.8.1-.1.5-.2,1.1-.3,1.6h-4.7c0-.2,0-.5,0-.7h.6Z" fill="#fff"/>
    <path d="M147.8,127.6c0-.2,0-.5,0-.7.8,0,1.6,0,2.3,0s.9,0,1.5.1c.7.2,1.3.8,1.3,1.4s-.6,1.3-1.3,1.6h0c.5.2.7.8,1.1,1.6.2.4.3.5.4.5h.6c0,.3,0,.5,0,.7-.3,0-.6,0-.8,0s-.7,0-.9,0c-.3-.4-.8-1.5-1.1-2-.2-.3-.4-.4-.7-.4s-.3,0-.4,0v1.6s.7,0,.7,0c0,.2,0,.5,0,.7h-2.6v-.7h.6s0,0,0,0v-4.4h-.6ZM149.8,129.8c0,0,.2,0,.4,0,.9,0,1.4-.6,1.4-1.1s-.5-1.1-1.3-1.1-.4,0-.4,0v2.1Z" fill="#fff"/>
  </g></svg>
